<?xml version="1.0" encoding="UTF-8"?>
<svg width="1e3" height="1e3" version="1.1" viewBox="0 0 1e3 1e3" xmlns="http://www.w3.org/2000/svg">
 <g transform="matrix(3.7795 0 0 3.7795 2278.5 -741.81)">
  <g transform="translate(-254.55 -110.45)">
   <g transform="translate(-8.5439 -164.07)">
    <g transform="translate(-1.8675)">
     <g transform="matrix(1.7254 0 0 1.7254 -415.14 315.79)">
      <g transform="translate(0 -2.0624)">
       <g transform="matrix(1.1961 0 0 1.1961 -183.73 -181.01)" aria-label="CÃ">
        <path d="m215.14 341.02q-2.7462 0-4.6983-1.0422-1.9521-1.0588-2.9778-3.0605-1.0257-2.0183-1.0257-4.8638v-6.6008q0-2.8455 1.0257-4.8472 1.0257-2.0183 2.9778-3.0771t4.6983-1.0588q2.2665 0 4.0532 0.97606 1.7867 0.97607 2.9447 2.8455 1.1746 1.8529 1.6213 4.4833h-4.6984q-0.26469-1.1911-0.82717-2.0348-0.54593-0.84372-1.34-1.2904-0.77754-0.44667-1.7536-0.44667-1.2738 0-2.1672 0.52939-0.89335 0.51284-1.3731 1.522-0.46321 0.9926-0.46321 2.3988v6.6008q0 1.4062 0.46321 2.3988 0.47976 0.9926 1.3731 1.522 0.89335 0.51284 2.1672 0.51284 0.99261 0 1.7867-0.43013 0.79408-0.44667 1.34-1.2904 0.54593-0.84371 0.79408-2.0514h4.6984q-0.46322 2.6304-1.6378 4.4998-1.158 1.8529-2.9447 2.8289-1.7702 0.97606-4.0366 0.97606z"/>
        <path d="m232.26 340.77h-4.6983v-24.054h4.6983zm-4.4006-28.322 4.566-4.0532 3.0109 3.0936-4.8803 3.7388z"/>
       </g>
       <g transform="matrix(1.0463 0 0 1.0463 -153.72 -217.68)" aria-label="BU">
        <path d="m209.58 335.98h8.7753q1.7778 0 2.7423-0.85105 0.98344-0.86996 0.98344-2.4208v-0.0567q0-1.0402-0.43498-1.7778-0.43498-0.73757-1.286-1.1158-0.83214-0.39716-2.0047-0.39716h-8.7753v-4.9928h8.7753q1.6076 0 2.4775-0.81323 0.88888-0.81323 0.88888-2.2884 0-1.3239-0.88888-2.0614-0.86996-0.73758-2.4775-0.73758h-8.7753v-4.9928h8.9455q2.6666 0 4.5579 0.88887 1.8912 0.86997 2.8747 2.5532 0.98344 1.6643 0.98344 4.0094 0 1.6075-0.64302 2.8558-0.6241 1.2293-1.8345 2.0236-1.2104 0.79431-2.9125 1.078 1.8156 0.24586 3.1016 1.1158 1.3049 0.85105 1.9669 2.2316 0.68084 1.3806 0.68084 3.1962v0.0567q0 2.364-1.0024 4.0472-0.98344 1.6832-2.8936 2.5721-1.8912 0.86997-4.5579 0.86997h-9.267zm-2.2695-22.506h5.182v27.498h-5.182z"/>
        <path d="m241.96 341.25q-3.1773 0-5.4278-1.1915-2.2506-1.2104-3.4231-3.4988-1.1726-2.3073-1.1726-5.5413v-17.551h5.182v17.683q0 2.364 1.2671 3.669 1.2671 1.3049 3.5744 1.3049 2.3262 0 3.5933-1.3049 1.286-1.305 1.286-3.669v-17.683h5.182v17.551q0 3.234-1.1915 5.5413-1.1726 2.2884-3.442 3.4988-2.2506 1.1915-5.4278 1.1915z"/>
       </g>
       <g transform="matrix(1.1961 0 0 1.1961 -184.33 -224.96)" aria-label="DOU">
        <path d="m209.22 336.4h5.7737q2.2334 0 3.4576-1.0753 1.2242-1.0753 1.2242-3.044v-7.0806q0-1.9687-1.2242-3.044-1.2242-1.0753-3.4576-1.0753h-5.7737v-4.3675h5.6744q3.0109 0 5.1285 1.0092 2.1341 1.0092 3.2425 2.9447 1.1084 1.9356 1.1084 4.6652v6.8159q0 2.5973-1.0753 4.5329-1.0588 1.9356-3.1929 3.0109-2.1341 1.0753-5.2277 1.0753h-5.6579zm-2.283-19.687h4.5329v24.054h-4.5329z"/>
        <path d="m237.45 341.02q-2.6139 0-4.6156-1.0919-1.9852-1.1084-3.0771-3.1102-1.0919-2.0183-1.0919-4.6652v-6.8159q0-2.647 1.0919-4.6487 1.0919-2.0183 3.0771-3.1102 2.0018-1.1084 4.6156-1.1084t4.5991 1.1084q2.0018 1.0919 3.0936 3.1102 1.0919 2.0018 1.0919 4.6487v6.8159q0 2.647-1.0919 4.6652-1.0919 2.0018-3.0936 3.1102-1.9852 1.0919-4.5991 1.0919zm0-4.5329q1.2242 0 2.1506-0.51284 0.92643-0.5294 1.4227-1.4889 0.51284-0.95952 0.51284-2.2168v-7.0475q0-1.2573-0.51284-2.2168-0.49631-0.95953-1.4227-1.4724-0.92644-0.52939-2.1506-0.52939-1.2242 0-2.1506 0.52939-0.92643 0.51284-1.4393 1.4724-0.49631 0.95952-0.49631 2.2168v7.0475q0 1.2573 0.49631 2.2168 0.51285 0.95952 1.4393 1.4889 0.92643 0.51284 2.1506 0.51284z"/>
        <path d="m259.47 341.02q-2.7793 0-4.748-1.0422-1.9687-1.0588-2.9944-3.0605-1.0257-2.0183-1.0257-4.8472v-15.352h4.5329v15.468q0 2.0679 1.1084 3.2094 1.1084 1.1415 3.1267 1.1415 2.0348 0 3.1433-1.1415 1.125-1.1415 1.125-3.2094v-15.468h4.5329v15.352q0 2.8289-1.0422 4.8472-1.0257 2.0018-3.0109 3.0605-1.9687 1.0422-4.748 1.0422z"/>
       </g>
      </g>
      <path transform="matrix(0,-1,-1,0,0,0)" d="m-95.966-198.13h6.1339v153.35h-6.1339z"/>
     </g>
    </g>
    <path transform="matrix(0,-1,-1,0,0,0)" d="m-735.37 329.17h264.58v10.583h-264.58z"/>
    <path transform="matrix(0,-1,-1,0,0,0)" d="m-735.37 75.168h10.583v264.58h-10.583z"/>
    <path transform="matrix(0,-1,-1,0,0,0)" d="m-735.37 75.168h179.92v10.583h-179.92z"/>
   </g>
  </g>
  <g font-family="sans-serif" font-size="10.583px" word-spacing="0px">
   <text style="line-height:1.25;shape-inside:url(#rect2527);white-space:pre" xml:space="preserve"/>
   <text style="line-height:1.25;shape-inside:url(#rect2539);white-space:pre" xml:space="preserve"/>
   <text style="line-height:1.25;shape-inside:url(#rect2545);white-space:pre" xml:space="preserve"/>
  </g>
 </g>
</svg>
