<svg width="25%" version="1.1" viewBox="0 0 642.07 120.51" xml:space="preserve"
	xmlns="http://www.w3.org/2000/svg">
	<style type="text/css">
		.st3 {
			display: inline;
			stroke: #000000;
			stroke-miterlimit: 10;
		}

		.st4 {
			stroke: #000000;
			stroke-width: 8;
			stroke-miterlimit: 10;
		}

		.st5 {
			fill: none;
			stroke: #000000;
			stroke-width: 8;
			stroke-miterlimit: 10;
		}

		.st6 {
			stroke: #000000;
			stroke-miterlimit: 10;
		}
	</style>
	<g class="st1">
		<rect class="st2" x="178.97" y="385.34" width="642.07" height="102.99" />
		<path
			d="m246.73 385.33h10.22c0.9 0 1.34 0.45 1.34 1.34v91.43c0 0.9-0.45 1.34-1.34 1.34h-9.82c-0.63 0-1.17-0.31-1.61-0.94l-42.08-68.71c-0.09-0.27-0.23-0.38-0.4-0.34-0.18 0.05-0.27 0.2-0.27 0.47l0.13 68.17c0 0.9-0.45 1.34-1.34 1.34h-10.22c-0.9 0-1.34-0.45-1.34-1.34v-91.43c0-0.89 0.45-1.34 1.34-1.34h9.95c0.63 0 1.16 0.32 1.61 0.94l41.95 68.71c0.09 0.27 0.22 0.38 0.4 0.34s0.27-0.2 0.27-0.47l-0.13-68.17c0-0.89 0.44-1.34 1.34-1.34z" />
		<path
			d="m340.18 396.49h-47.73c-0.36 0-0.54 0.18-0.54 0.54v28.91c0 0.36 0.18 0.54 0.54 0.54h32.81c0.9 0 1.34 0.45 1.34 1.34v8.47c0 0.9-0.45 1.34-1.34 1.34h-32.81c-0.36 0-0.54 0.18-0.54 0.54v29.58c0 0.36 0.18 0.54 0.54 0.54h47.73c0.9 0 1.34 0.45 1.34 1.34v8.47c0 0.9-0.45 1.34-1.34 1.34h-59.83c-0.9 0-1.34-0.45-1.34-1.34v-91.43c0-0.89 0.45-1.34 1.34-1.34h59.83c0.9 0 1.34 0.45 1.34 1.34v8.47c0 0.91-0.45 1.35-1.34 1.35z" />
		<path
			d="m372.52 476.83c-4.97-2.55-8.83-6.18-11.56-10.89-2.74-4.71-4.1-10.11-4.1-16.2v-34.82c0-6.09 1.37-11.45 4.1-16.07s6.59-8.2 11.56-10.76c4.98-2.55 10.69-3.83 17.14-3.83s12.15 1.23 17.08 3.7 8.76 5.94 11.5 10.42c2.73 4.48 4.1 9.68 4.1 15.6v0.13c0 0.45-0.13 0.81-0.4 1.08s-0.58 0.4-0.94 0.4l-10.22 0.54c-0.9 0-1.34-0.4-1.34-1.21v-0.4c0-5.74-1.79-10.35-5.38-13.85s-8.38-5.24-14.39-5.24-10.82 1.75-14.45 5.24c-3.63 3.5-5.45 8.11-5.45 13.85v35.77c0 5.74 1.82 10.35 5.45 13.85s8.45 5.24 14.45 5.24 10.8-1.75 14.39-5.24c3.58-3.5 5.38-8.11 5.38-13.85v-0.27c0-0.81 0.45-1.21 1.34-1.21l10.22 0.54c0.9 0 1.34 0.45 1.34 1.34 0 5.92-1.37 11.14-4.1 15.66-2.74 4.53-6.57 8.05-11.5 10.55-4.93 2.51-10.62 3.76-17.08 3.76s-12.17-1.27-17.14-3.83z" />
		<path
			d="m494.67 385.33h10.22c0.89 0 1.34 0.45 1.34 1.34v91.43c0 0.9-0.45 1.34-1.34 1.34h-10.22c-0.9 0-1.34-0.45-1.34-1.34v-39.93c0-0.36-0.18-0.54-0.54-0.54h-38.32c-0.36 0-0.54 0.18-0.54 0.54v39.93c0 0.9-0.45 1.34-1.34 1.34h-10.22c-0.9 0-1.34-0.45-1.34-1.34v-91.43c0-0.89 0.45-1.34 1.34-1.34h10.22c0.9 0 1.34 0.45 1.34 1.34v39.26c0 0.36 0.18 0.54 0.54 0.54h38.32c0.36 0 0.54-0.18 0.54-0.54v-39.26c-0.01-0.89 0.44-1.34 1.34-1.34z" />
		<path
			d="m584.08 478.38-4.84-15.73c-0.09-0.27-0.27-0.4-0.54-0.4h-37.78c-0.27 0-0.45 0.13-0.54 0.4l-4.84 15.73c-0.27 0.72-0.81 1.08-1.61 1.08h-10.89c-0.99 0-1.34-0.49-1.08-1.48l29.45-91.56c0.27-0.72 0.81-1.08 1.61-1.08h13.45c0.81 0 1.34 0.36 1.61 1.08l29.71 91.56 0.13 0.54c0 0.63-0.4 0.94-1.21 0.94h-11.03c-0.79-0.01-1.33-0.36-1.6-1.08zm-40.27-26.56c0.13 0.13 0.29 0.2 0.47 0.2h30.92c0.18 0 0.34-0.07 0.47-0.2s0.16-0.29 0.07-0.47l-15.6-49.88c-0.09-0.18-0.22-0.27-0.4-0.27s-0.32 0.09-0.4 0.27l-15.6 49.88c-0.09 0.18-0.06 0.34 0.07 0.47z" />
		<path
			d="m664.75 386.68v8.61c0 0.9-0.45 1.34-1.34 1.34h-25.82c-0.36 0-0.54 0.18-0.54 0.54v80.94c0 0.9-0.45 1.34-1.34 1.34h-10.22c-0.9 0-1.34-0.45-1.34-1.34v-80.94c0-0.36-0.18-0.54-0.54-0.54h-24.61c-0.9 0-1.34-0.45-1.34-1.34v-8.61c0-0.89 0.45-1.34 1.34-1.34h64.4c0.9-0.01 1.35 0.44 1.35 1.34z" />
		<path
			d="m683.58 477.57 28.64-72.34c0.09-0.18 0.07-0.36-0.07-0.54-0.13-0.18-0.29-0.27-0.47-0.27h-21.24c-0.45 0-0.67 0.22-0.67 0.67v6.32c0 0.45-0.16 0.83-0.47 1.14-0.32 0.32-0.7 0.47-1.14 0.47h-14.92c-0.45 0-0.83-0.16-1.14-0.47s-0.47-0.69-0.47-1.14l0.13-24.47c0-0.45 0.16-0.83 0.47-1.14s0.69-0.47 1.14-0.47h60.91c0.45 0 0.83 0.16 1.14 0.47 0.31 0.32 0.47 0.7 0.47 1.14v16.4c0 0.54-0.13 1.21-0.4 2.02l-28.37 72.88c-0.27 0.81-0.9 1.21-1.88 1.21h-20.3c-1.36 0-1.81-0.62-1.36-1.88z" />
		<path
			d="m807.54 448.93c0 4.48-0.81 8.79-2.42 12.91-2.33 5.56-6.21 10.02-11.63 13.38s-11.68 5.04-18.76 5.04-13.31-1.63-18.69-4.91c-5.38-3.27-9.28-7.73-11.7-13.38-0.99-2.51-1.7-5.2-2.15-8.07v-0.27c0-0.99 0.54-1.48 1.61-1.48h19.63c0.81 0 1.43 0.45 1.88 1.34 0.09 0.54 0.4 1.26 0.94 2.15 1.7 3.68 4.44 5.51 8.2 5.51 1.88 0 3.58-0.47 5.11-1.41 1.52-0.94 2.73-2.31 3.63-4.1 0.99-1.79 1.48-4.03 1.48-6.72 0-2.51-0.45-4.66-1.34-6.45-0.63-1.61-1.68-2.89-3.16-3.83s-3.16-1.41-5.04-1.41c-2.06 0-3.99 0.49-5.78 1.48s-3 2.24-3.63 3.76c-0.27 0.9-0.85 1.34-1.75 1.34h-20.03c-0.45 0-0.83-0.16-1.14-0.47-0.32-0.31-0.47-0.69-0.47-1.14v-55.26c0-0.45 0.16-0.83 0.47-1.14s0.69-0.47 1.14-0.47h58.89c0.45 0 0.83 0.16 1.14 0.47 0.31 0.32 0.47 0.7 0.47 1.14v15.87c0 0.45-0.16 0.83-0.47 1.14-0.32 0.31-0.7 0.47-1.14 0.47h-37.51c-0.45 0-0.67 0.22-0.67 0.67v15.73c0 0.27 0.09 0.45 0.27 0.54s0.36 0.05 0.54-0.13c3.67-2.15 7.84-3.23 12.5-3.23 6.36 0 11.97 1.61 16.81 4.84s8.34 7.62 10.49 13.18c1.52 4.31 2.28 8.61 2.28 12.91z" />
	</g>
	<rect class="st1" x="189.89" y="481.26" width="80.14" height="19.51" />
	<rect class="st3" x="490.54" y="492.04" width="80.14" height="8.73" />
	<rect class="st3" x="340.21" y="481.26" width="80.14" height="19.51" />
	<g class="st1">
		<line class="st4" x1="189.89" x2="570.68" y1="481.26" y2="481.26" />
		<line class="st5" x1="189.89" x2="570.68" y1="500.77" y2="500.77" />
		<line class="st4" x1="490.54" x2="812.79" y1="481.26" y2="481.26" />
		<line class="st5" x1="490.54" x2="812.79" y1="500.77" y2="500.77" />
	</g>

	<g transform="translate(-187.72,-379.27)">


		<path
			d="m255.49 380.34h10.22c0.9 0 1.34 0.45 1.34 1.34v91.43c0 0.9-0.45 1.34-1.34 1.34h-9.82c-0.63 0-1.17-0.31-1.61-0.94l-42.08-68.71c-0.09-0.27-0.23-0.38-0.4-0.34-0.18 0.05-0.27 0.2-0.27 0.47l0.13 68.17c0 0.9-0.45 1.34-1.34 1.34h-10.22c-0.9 0-1.34-0.45-1.34-1.34v-91.43c0-0.89 0.45-1.34 1.34-1.34h9.95c0.63 0 1.16 0.32 1.61 0.94l41.95 68.71c0.09 0.27 0.22 0.38 0.4 0.34s0.27-0.2 0.27-0.47l-0.13-68.17c-0.01-0.89 0.44-1.34 1.34-1.34z" />
		<path
			d="m348.93 391.5h-47.73c-0.36 0-0.54 0.18-0.54 0.54v28.91c0 0.36 0.18 0.54 0.54 0.54h32.81c0.9 0 1.34 0.45 1.34 1.34v8.47c0 0.9-0.45 1.34-1.34 1.34h-32.81c-0.36 0-0.54 0.18-0.54 0.54v29.58c0 0.36 0.18 0.54 0.54 0.54h47.73c0.9 0 1.34 0.45 1.34 1.34v8.47c0 0.9-0.45 1.34-1.34 1.34h-59.83c-0.9 0-1.34-0.45-1.34-1.34v-91.43c0-0.89 0.45-1.34 1.34-1.34h59.83c0.9 0 1.34 0.45 1.34 1.34v8.47c0.01 0.9-0.44 1.35-1.34 1.35z" />
		<path
			d="m381.27 471.84c-4.97-2.55-8.83-6.18-11.56-10.89-2.74-4.71-4.1-10.11-4.1-16.2v-34.82c0-6.09 1.37-11.45 4.1-16.07s6.59-8.2 11.56-10.76c4.98-2.55 10.69-3.83 17.14-3.83s12.15 1.23 17.08 3.7 8.76 5.94 11.5 10.42c2.73 4.48 4.1 9.68 4.1 15.6v0.13c0 0.45-0.13 0.81-0.4 1.08s-0.58 0.4-0.94 0.4l-10.22 0.54c-0.9 0-1.34-0.4-1.34-1.21v-0.4c0-5.74-1.79-10.35-5.38-13.85s-8.38-5.24-14.39-5.24-10.82 1.75-14.45 5.24c-3.63 3.5-5.45 8.11-5.45 13.85v35.77c0 5.74 1.82 10.35 5.45 13.85s8.45 5.24 14.45 5.24 10.8-1.75 14.39-5.24c3.58-3.5 5.38-8.11 5.38-13.85v-0.27c0-0.81 0.45-1.21 1.34-1.21l10.22 0.54c0.9 0 1.34 0.45 1.34 1.34 0 5.92-1.37 11.14-4.1 15.66-2.74 4.53-6.57 8.05-11.5 10.55-4.93 2.51-10.62 3.76-17.08 3.76-6.45 0-12.17-1.28-17.14-3.83z" />
		<path
			d="m503.42 380.34h10.22c0.89 0 1.34 0.45 1.34 1.34v91.43c0 0.9-0.45 1.34-1.34 1.34h-10.22c-0.9 0-1.34-0.45-1.34-1.34v-39.93c0-0.36-0.18-0.54-0.54-0.54h-38.32c-0.36 0-0.54 0.18-0.54 0.54v39.93c0 0.9-0.45 1.34-1.34 1.34h-10.22c-0.9 0-1.34-0.45-1.34-1.34v-91.43c0-0.89 0.45-1.34 1.34-1.34h10.22c0.9 0 1.34 0.45 1.34 1.34v39.26c0 0.36 0.18 0.54 0.54 0.54h38.32c0.36 0 0.54-0.18 0.54-0.54v-39.26c0-0.89 0.44-1.34 1.34-1.34z" />
		<path
			d="m592.83 473.39-4.84-15.73c-0.09-0.27-0.27-0.4-0.54-0.4h-37.78c-0.27 0-0.45 0.13-0.54 0.4l-4.84 15.73c-0.27 0.72-0.81 1.08-1.61 1.08h-10.89c-0.99 0-1.34-0.49-1.08-1.48l29.45-91.56c0.27-0.72 0.81-1.08 1.61-1.08h13.45c0.81 0 1.34 0.36 1.61 1.08l29.71 91.56 0.13 0.54c0 0.63-0.4 0.94-1.21 0.94h-11.03c-0.79-0.01-1.33-0.37-1.6-1.08zm-40.27-26.56c0.13 0.13 0.29 0.2 0.47 0.2h30.92c0.18 0 0.34-0.07 0.47-0.2s0.16-0.29 0.07-0.47l-15.6-49.88c-0.09-0.18-0.22-0.27-0.4-0.27s-0.32 0.09-0.4 0.27l-15.6 49.88c-0.08 0.18-0.06 0.34 0.07 0.47z" />
		<path
			d="m673.51 381.69v8.61c0 0.9-0.45 1.34-1.34 1.34h-25.82c-0.36 0-0.54 0.18-0.54 0.54v80.94c0 0.9-0.45 1.34-1.34 1.34h-10.22c-0.9 0-1.34-0.45-1.34-1.34v-80.94c0-0.36-0.18-0.54-0.54-0.54h-24.61c-0.9 0-1.34-0.45-1.34-1.34v-8.61c0-0.89 0.45-1.34 1.34-1.34h64.4c0.9-0.01 1.35 0.44 1.35 1.34z" />
		<path
			d="m692.33 472.58 28.64-72.34c0.09-0.18 0.07-0.36-0.07-0.54-0.13-0.18-0.29-0.27-0.47-0.27h-21.24c-0.45 0-0.67 0.22-0.67 0.67v6.32c0 0.45-0.16 0.83-0.47 1.14-0.32 0.32-0.7 0.47-1.14 0.47h-14.92c-0.45 0-0.83-0.16-1.14-0.47s-0.47-0.69-0.47-1.14l0.13-24.47c0-0.45 0.16-0.83 0.47-1.14s0.69-0.47 1.14-0.47h60.91c0.45 0 0.83 0.16 1.14 0.47 0.31 0.32 0.47 0.7 0.47 1.14v16.4c0 0.54-0.13 1.21-0.4 2.02l-28.37 72.88c-0.27 0.81-0.9 1.21-1.88 1.21h-20.3c-1.36 0-1.81-0.62-1.36-1.88z" />
		<path
			d="m816.3 443.94c0 4.48-0.81 8.79-2.42 12.91-2.33 5.56-6.21 10.02-11.63 13.38s-11.68 5.04-18.76 5.04-13.31-1.63-18.69-4.91c-5.38-3.27-9.28-7.73-11.7-13.38-0.99-2.51-1.7-5.2-2.15-8.07v-0.27c0-0.99 0.54-1.48 1.61-1.48h19.63c0.81 0 1.43 0.45 1.88 1.34 0.09 0.54 0.4 1.26 0.94 2.15 1.7 3.68 4.44 5.51 8.2 5.51 1.88 0 3.58-0.47 5.11-1.41 1.52-0.94 2.73-2.31 3.63-4.1 0.99-1.79 1.48-4.03 1.48-6.72 0-2.51-0.45-4.66-1.34-6.45-0.63-1.61-1.68-2.89-3.16-3.83s-3.16-1.41-5.04-1.41c-2.06 0-3.99 0.49-5.78 1.48s-3 2.24-3.63 3.76c-0.27 0.9-0.85 1.34-1.75 1.34h-20.03c-0.45 0-0.83-0.16-1.14-0.47-0.32-0.31-0.47-0.69-0.47-1.14v-55.26c0-0.45 0.16-0.83 0.47-1.14s0.69-0.47 1.14-0.47h58.89c0.45 0 0.83 0.16 1.14 0.47 0.31 0.32 0.47 0.7 0.47 1.14v15.87c0 0.45-0.16 0.83-0.47 1.14-0.32 0.31-0.7 0.47-1.14 0.47h-37.51c-0.45 0-0.67 0.22-0.67 0.67v15.73c0 0.27 0.09 0.45 0.27 0.54s0.36 0.05 0.54-0.13c3.67-2.15 7.84-3.23 12.5-3.23 6.36 0 11.97 1.61 16.81 4.84s8.34 7.62 10.49 13.18c1.52 4.3 2.28 8.61 2.28 12.91z" />

		<rect x="198.64" y="476.26" width="80.14" height="19.51" />
		<rect class="st6" x="499.29" y="487.05" width="80.14" height="8.73" />
		<rect class="st6" x="348.97" y="476.26" width="80.14" height="19.51" />

		<line class="st4" x1="198.64" x2="579.43" y1="476.26" y2="476.26" />
		<line class="st5" x1="198.64" x2="579.43" y1="495.78" y2="495.78" />
		<line class="st4" x1="499.29" x2="821.55" y1="476.26" y2="476.26" />
		<line class="st5" x1="499.29" x2="821.55" y1="495.78" y2="495.78" />

		<rect class="st6" x="499.29" y="476.26" width="80.14" height="20.68" />
		<rect class="st6" x="646.8" y="476.26" width="80.14" height="19.51" />
	</g>
</svg>